<?xml version="1.0" encoding="UTF-8" standalone="no"?>
<svg width="41px" height="37px" viewBox="0 0 41 37" version="1.1" xmlns="http://www.w3.org/2000/svg" xmlns:xlink="http://www.w3.org/1999/xlink">
    <!-- Generator: Sketch 45.2 (43514) - http://www.bohemiancoding.com/sketch -->
    <title>Shape</title>
    <desc>Created with Sketch.</desc>
    <defs></defs>
    <g id="Page-1" stroke="none" stroke-width="1" fill="none" fill-rule="evenodd">
        <g id="red-zone" transform="translate(-281.000000, -686.000000)" fill-rule="nonzero" fill="#F5A623">
            <g id="caution" transform="translate(280.000000, 683.000000)">
                <g transform="translate(0.000000, 0.917969)" id="noun_744255_cc">
                    <g transform="translate(0.796875, 0.000000)">
                        <path d="M40.483199,35.2179613 L22.5572167,4.16932421 C22.0665494,3.31919366 21.3957012,2.85099279 20.6686868,2.85099279 C19.942571,2.85099279 19.2726214,3.31919366 18.7810554,4.16932421 L0.855522503,35.2179613 C0.364855185,36.0685411 0.294759854,36.8827254 0.657368394,37.511786 C1.02087559,38.1408467 1.76136986,38.4868301 2.74315382,38.4868301 L38.5942197,38.4868301 C39.5755543,38.4868301 40.3160486,38.1408467 40.6795558,37.511786 C41.043063,36.8827254 40.973417,36.0680918 40.483199,35.2179613 Z M20.6691361,35.311871 C19.2267899,35.311871 18.0526931,34.1373249 18.0526931,32.6936307 C18.0526931,31.2512844 19.2267899,30.0771876 20.6691361,30.0771876 C22.1119317,30.0771876 23.2878258,31.2512844 23.2878258,32.6936307 C23.2873764,34.1373249 22.1119317,35.311871 20.6691361,35.311871 Z M21.906139,27.768535 C21.5030908,27.667436 21.0874614,27.6157631 20.6691361,27.6157631 C20.2508108,27.6157631 19.8356307,27.667436 19.4330319,27.768535 L18.0868421,11.978663 L23.2514301,11.978663 L21.906139,27.768535 Z" id="Shape"></path>
                    </g>
                </g>
            </g>
        </g>
    </g>
</svg>