<?xml version="1.0" encoding="UTF-8" standalone="no"?>
<svg width="48px" height="36px" viewBox="0 0 48 36" version="1.1" xmlns="http://www.w3.org/2000/svg" xmlns:xlink="http://www.w3.org/1999/xlink">
    <!-- Generator: Sketch 45.2 (43514) - http://www.bohemiancoding.com/sketch -->
    <title>Group</title>
    <desc>Created with Sketch.</desc>
    <defs></defs>
    <g id="Page-1" stroke="none" stroke-width="1" fill="none" fill-rule="evenodd">
        <g id="red-zone" transform="translate(-493.000000, -1109.000000)" fill-rule="nonzero" fill="#000000">
            <g id="bubble-thig" transform="translate(101.000000, 439.351562)">
                <g id="CTAs" transform="translate(0.000000, 442.118499)">
                    <g id="Group" transform="translate(47.000000, 42.000000)">
                        <g id="Group-2" transform="translate(0.457031, 163.548828)">
                            <g id="noun_887280_cc" transform="translate(345.445499, 22.500000)">
                                <g id="Group">
                                    <path d="M15.4045652,18.3658696 C16.0117391,17.7997826 16.0132609,16.8730435 15.4076087,16.3054348 L0.728913043,2.55652174 C0.264782609,3.33717391 0,4.25021739 0,5.2226087 L0,29.6054348 C0,30.5184783 0.231304348,31.3767391 0.645217391,32.1254348 L15.4045652,18.3658696 Z" id="Shape"></path>
                                    <path d="M29.953913,20.0108696 C29.3482609,19.4432609 28.3545652,19.4417391 27.7458696,20.0093478 L24.6491304,22.896087 C24.0434783,23.4621739 23.0482609,23.4621739 22.4441304,22.8945652 L19.2058696,19.8602174 C18.6017391,19.2926087 17.6080435,19.2926087 16.9993478,19.8571739 L2.065,33.775 C2.93391304,34.4415217 4.0173913,34.8386957 5.19521739,34.8386957 L40.2576087,34.8386957 L41.7671739,34.8386957 C42.881087,34.8386957 43.9128261,34.4795652 44.7573913,33.8784783 L29.953913,20.0108696 Z" id="Shape"></path>
                                    <path d="M46.3156522,2.7026087 L31.5532609,16.4636957 C30.9476087,17.0282609 30.9445652,17.955 31.5502174,18.5241304 L46.2304348,32.2745652 C46.6945652,31.4893478 46.9593478,30.5778261 46.9593478,29.6054348 L46.9593478,5.2226087 C46.9593478,4.31108696 46.725,3.45130435 46.3156522,2.7026087 Z" id="Shape"></path>
                                    <path d="M22.4426087,19.915 C23.0497826,20.4826087 24.0419565,20.4841304 24.6506522,19.9180435 L44.8913043,1.05456522 C44.023913,0.392608696 42.9419565,0 41.7641304,0 L5.19217391,0 C4.07673913,0 3.04652174,0.353043478 2.19891304,0.954130435 L22.4426087,19.915 Z" id="Shape"></path>
                                </g>
                            </g>
                        </g>
                    </g>
                </g>
            </g>
        </g>
    </g>
</svg>