<?xml version="1.0" encoding="UTF-8" standalone="no"?>
<svg width="48px" height="47px" viewBox="0 0 48 47" version="1.1" xmlns="http://www.w3.org/2000/svg" xmlns:xlink="http://www.w3.org/1999/xlink">
    <!-- Generator: Sketch 45.2 (43514) - http://www.bohemiancoding.com/sketch -->
    <title>Shape</title>
    <desc>Created with Sketch.</desc>
    <defs></defs>
    <g id="Page-1" stroke="none" stroke-width="1" fill="none" fill-rule="evenodd">
        <g id="red-zone" transform="translate(-803.000000, -1105.000000)" fill-rule="nonzero" fill="#000000">
            <g id="bubble-thig" transform="translate(101.000000, 439.351562)">
                <g id="CTAs" transform="translate(0.000000, 442.118499)">
                    <g id="Group" transform="translate(47.000000, 42.000000)">
                        <g id="Group-2" transform="translate(0.457031, 163.548828)">
                            <g id="noun_688808_cc" transform="translate(655.000000, 18.000000)">
                                <path d="M46.1303273,44.3241566 L44.9916085,44.3241566 L44.9916085,5.96453893 C44.9916085,5.25419468 44.3942637,4.67834688 43.6574016,4.67834688 L35.3491532,4.67834688 L35.3491532,1.50291305 C35.3491916,1.1585033 35.2059434,0.828466639 34.951487,0.586709725 C34.6970306,0.34495281 34.352626,0.211674705 33.9953975,0.216721004 L13.8894364,0.216721004 C13.1525742,0.216721004 12.5552294,0.792568796 12.5552294,1.50291305 L12.5552294,15.8960145 L4.24698108,15.8960145 C3.51011893,15.8960145 2.91277413,16.4718623 2.91277413,17.1822065 L2.91277413,44.3194453 L1.76428098,44.3194453 C1.02606926,44.3194453 0.427630431,44.8963477 0.427630431,45.607993 C0.427630431,46.3196382 1.02606926,46.8965407 1.76428098,46.8965407 L46.1303273,46.8965407 C46.868539,46.8965407 47.4669778,46.3196382 47.4669778,45.607993 C47.4669778,44.8963477 46.868539,44.3194453 46.1303273,44.3194453 L46.1303273,44.3241566 Z M31.8108168,8.77720065 C31.8108168,8.61976095 31.8756943,8.46876958 31.9911769,8.3574429 C32.1066595,8.24611623 32.2632876,8.18357355 32.4266047,8.18357355 L34.699155,8.18357355 C35.0392452,8.18357355 35.3149428,8.44934946 35.3149428,8.77720065 L35.3149428,10.97739 C35.3162457,11.1356444 35.2519439,11.2878489 35.1363197,11.4001967 C35.0206956,11.5125444 34.8633223,11.5757334 34.699155,11.5757284 L32.4266047,11.5757284 C32.2632876,11.5757284 32.1066595,11.5131857 31.9911769,11.401859 C31.8756943,11.2905324 31.8108168,11.139541 31.8108168,10.9821013 L31.8108168,8.77720065 Z M31.8108168,14.3883901 C31.8108168,14.2309504 31.8756943,14.079959 31.9911769,13.9686324 C32.1066595,13.8573057 32.2632876,13.794763 32.4266047,13.794763 L34.699155,13.794763 C35.0392452,13.794763 35.3149428,14.0605389 35.3149428,14.3883901 L35.3149428,16.5932908 C35.3149428,16.921142 35.0392452,17.1869179 34.699155,17.1869179 L32.4266047,17.1869179 C32.0865144,17.1869179 31.8108168,16.921142 31.8108168,16.5932908 L31.8108168,14.3883901 Z M31.8108168,19.9995796 C31.8108168,19.8421399 31.8756943,19.6911485 31.9911769,19.5798218 C32.1066595,19.4684952 32.2632876,19.4059525 32.4266047,19.4059525 L34.699155,19.4059525 C35.0392452,19.4059525 35.3149428,19.6717284 35.3149428,19.9995796 L35.3149428,22.2044802 C35.3149428,22.3619199 35.2500653,22.5129113 35.1345827,22.624238 C35.0191001,22.7355646 34.862472,22.7981073 34.699155,22.7981073 L32.4266047,22.7981073 C32.0865144,22.7981073 31.8108168,22.5323314 31.8108168,22.2044802 L31.8108168,19.9995796 Z M31.8108168,25.610769 C31.8108168,25.4533294 31.8756943,25.302338 31.9911769,25.1910113 C32.1066595,25.0796846 32.2632876,25.0171419 32.4266047,25.0171419 L34.699155,25.0171419 C35.0392452,25.0171419 35.3149428,25.2829179 35.3149428,25.610769 L35.3149428,27.7968244 C35.3202368,27.9575033 35.2577041,28.1133819 35.1416427,28.2288184 C35.0255813,28.3442549 34.8659162,28.4093778 34.699155,28.4092968 L32.4266047,28.4092968 C32.2598434,28.4093778 32.1001784,28.3442549 31.984117,28.2288184 C31.8680556,28.1133819 31.8055228,27.9575033 31.8108168,27.7968244 L31.8108168,25.610769 Z M31.8108168,31.2219585 C31.8095139,31.0637041 31.8738158,30.9114996 31.9894399,30.7991518 C32.105064,30.6868041 32.2624373,30.6236151 32.4266047,30.6236201 L34.699155,30.6236201 C34.862472,30.6236201 35.0191001,30.6861628 35.1345827,30.7974894 C35.2500653,30.9088161 35.3149428,31.0598075 35.3149428,31.2172472 L35.3149428,33.4221478 C35.3162457,33.5804022 35.2519439,33.7326068 35.1363197,33.8449545 C35.0206956,33.9573022 34.8633223,34.0204912 34.699155,34.0204863 L32.4266047,34.0204863 C32.0865144,34.0204863 31.8108168,33.7547103 31.8108168,33.4268592 L31.8108168,31.2219585 Z M12.5552294,19.9995796 C12.5537592,19.8371561 12.621393,19.6812462 12.7423684,19.5681854 C12.8633438,19.4551245 13.0270929,19.3947894 13.1954533,19.4012412 L15.4826652,19.4012412 C15.8227554,19.4012412 16.098453,19.6670171 16.098453,19.9948683 L16.098453,22.1997689 C16.098453,22.5276201 15.8227554,22.793396 15.4826652,22.793396 L13.1954533,22.793396 C12.8553631,22.793396 12.5796655,22.5276201 12.5796655,22.1997689 L12.5552294,19.9995796 Z M16.074017,25.610769 L16.074017,27.7968244 C16.074017,28.1246756 15.7983194,28.3904515 15.4582292,28.3904515 L13.1954533,28.3904515 C13.0279449,28.3968645 12.8649645,28.3371646 12.7441415,28.2251352 C12.6233184,28.1131059 12.5550974,27.9584318 12.5552294,27.7968244 L12.5552294,25.610769 C12.5537592,25.4483456 12.621393,25.2924357 12.7423684,25.1793748 C12.8633438,25.066314 13.0270929,25.0059788 13.1954533,25.0124306 L15.4826652,25.0124306 C15.8150789,25.0251447 16.0769188,25.2900782 16.074017,25.610769 L16.074017,25.610769 Z M12.5552294,31.2219585 C12.5537592,31.059535 12.621393,30.9036251 12.7423684,30.7905643 C12.8633438,30.6775035 13.0270929,30.6171683 13.1954533,30.6236201 L15.4826652,30.6236201 C15.6459823,30.6236201 15.8026103,30.6861628 15.9180929,30.7974894 C16.0335756,30.9088161 16.098453,31.0598075 16.098453,31.2172472 L16.098453,33.4221478 C16.098453,33.5795875 16.0335756,33.7305789 15.9180929,33.8419056 C15.8026103,33.9532323 15.6459823,34.0157749 15.4826652,34.0157749 L13.1954533,34.0157749 C13.0321362,34.0157749 12.8755082,33.9532323 12.7600256,33.8419056 C12.6445429,33.7305789 12.5796655,33.5795875 12.5796655,33.4221478 L12.5552294,31.2219585 Z M10.0041085,33.4268592 C10.0041085,33.7547103 9.72841088,34.0204863 9.38832066,34.0204863 L7.10110875,34.0204863 C6.76101853,34.0204863 6.48532093,33.7547103 6.48532093,33.4268592 L6.48532093,31.2219585 C6.48401802,31.0637041 6.54831984,30.9114996 6.66394397,30.7991518 C6.77956811,30.6868041 6.93694137,30.6236151 7.10110875,30.6236201 L9.38832066,30.6236201 C9.55163774,30.6236201 9.70826578,30.6861628 9.8237484,30.7974894 C9.93923102,30.9088161 10.0041085,31.0598075 10.0041085,31.2172472 L10.0041085,33.4268592 Z M10.0041085,27.8156697 C10.0041085,28.1435209 9.72841088,28.4092968 9.38832066,28.4092968 L7.10110875,28.4092968 C6.9343475,28.4093778 6.77468244,28.3442549 6.65862105,28.2288184 C6.54255966,28.1133819 6.4800269,27.9575033 6.48532093,27.7968244 L6.48532093,25.610769 C6.48532093,25.2829179 6.76101853,25.0171419 7.10110875,25.0171419 L9.38832066,25.0171419 C9.72841088,25.0171419 10.0041085,25.2829179 10.0041085,25.610769 L10.0041085,27.8156697 Z M10.0041085,22.2044802 C10.0041085,22.5323314 9.72841088,22.7981073 9.38832066,22.7981073 L7.10110875,22.7981073 C6.76101853,22.7981073 6.48532093,22.5323314 6.48532093,22.2044802 L6.48532093,19.9995796 C6.48532093,19.6717284 6.76101853,19.4059525 7.10110875,19.4059525 L9.38832066,19.4059525 C9.72841088,19.4059525 10.0041085,19.6717284 10.0041085,19.9995796 L10.0041085,22.2044802 Z M17.4179983,44.3477132 L11.2161353,44.3477132 L11.2161353,36.8378593 C11.2161353,36.5048041 11.4962091,36.2348096 11.8416975,36.2348096 L16.7924361,36.2348096 C17.1379246,36.2348096 17.4179983,36.5048041 17.4179983,36.8378593 L17.4179983,44.3477132 Z M22.1488127,33.4504158 C22.1488127,33.778267 21.8731151,34.0440429 21.5330249,34.0440429 L19.245813,34.0440429 C18.9057228,34.0440429 18.6300252,33.778267 18.6300252,33.4504158 L18.6300252,31.2219585 C18.6287223,31.0637041 18.6930241,30.9114996 18.8086482,30.7991518 C18.9242723,30.6868041 19.0816456,30.6236151 19.245813,30.6236201 L21.5330249,30.6236201 C21.696342,30.6236201 21.85297,30.6861628 21.9684526,30.7974894 C22.0839353,30.9088161 22.1488127,31.0598075 22.1488127,31.2172472 L22.1488127,33.4504158 Z M22.1488127,27.8392263 C22.1488127,28.1670775 21.8731151,28.4328534 21.5330249,28.4328534 L19.245813,28.4328534 C19.0737342,28.4345944 18.9087505,28.3668413 18.7908362,28.2460102 C18.672922,28.125179 18.6128365,27.9622952 18.625138,27.7968244 L18.625138,25.610769 C18.625138,25.2829179 18.9008356,25.0171419 19.2409258,25.0171419 L21.5281377,25.0171419 C21.8682279,25.0171419 22.1439255,25.2829179 22.1439255,25.610769 L22.1488127,27.8392263 Z M22.1488127,22.2280369 C22.1488127,22.555888 21.8731151,22.821664 21.5330249,22.821664 L19.245813,22.821664 C18.9057228,22.821664 18.6300252,22.555888 18.6300252,22.2280369 L18.6300252,19.9995796 C18.6300252,19.6717284 18.9057228,19.4059525 19.245813,19.4059525 L21.5330249,19.4059525 C21.8731151,19.4059525 22.1488127,19.6717284 22.1488127,19.9995796 L22.1488127,22.2280369 Z M29.2596959,33.4221478 C29.2596959,33.5795875 29.1948184,33.7305789 29.0793358,33.8419056 C28.9638532,33.9532323 28.8072251,34.0157749 28.6439081,34.0157749 L26.3566962,34.0157749 C26.1933791,34.0157749 26.036751,33.9532323 25.9212684,33.8419056 C25.8057858,33.7305789 25.7409083,33.5795875 25.7409083,33.4221478 L25.7409083,31.2219585 C25.7396054,31.0637041 25.8039072,30.9114996 25.9195314,30.7991518 C26.0351555,30.6868041 26.1925288,30.6236151 26.3566962,30.6236201 L28.6390209,30.6236201 C28.8023379,30.6236201 28.958966,30.6861628 29.0744486,30.7974894 C29.1899312,30.9088161 29.2548087,31.0598075 29.2548087,31.2172472 L29.2596959,33.4221478 Z M29.2596959,27.8109584 C29.2610108,27.9700328 29.1960408,28.1229601 29.0793554,28.2354463 C28.96267,28.3479325 28.8040337,28.4105644 28.6390209,28.4092968 L26.3566962,28.4092968 C26.1890886,28.4106608 26.0281465,28.3461017 25.9110173,28.2305204 C25.7938882,28.1149392 25.7306941,27.9583243 25.7360211,27.7968244 L25.7360211,25.610769 C25.7360211,25.2829179 26.0117187,25.0171419 26.3518089,25.0171419 L28.6390209,25.0171419 C28.9791111,25.0171419 29.2548087,25.2829179 29.2548087,25.610769 L29.2596959,27.8109584 Z M29.2596959,22.1997689 C29.2596959,22.5276201 28.9839983,22.793396 28.6439081,22.793396 L26.3566962,22.793396 C26.0166059,22.793396 25.7409083,22.5276201 25.7409083,22.1997689 L25.7409083,19.9995796 C25.7409083,19.6717284 26.0166059,19.4059525 26.3566962,19.4059525 L28.6390209,19.4059525 C28.9791111,19.4059525 29.2548087,19.6717284 29.2548087,19.9995796 L29.2596959,22.1997689 Z M29.2596959,16.5885794 C29.2596959,16.9164306 28.9839983,17.1822065 28.6439081,17.1822065 L26.3566962,17.1822065 C26.0166059,17.1822065 25.7409083,16.9164306 25.7409083,16.5885794 L25.7409083,14.3883901 C25.7409083,14.2309504 25.8057858,14.079959 25.9212684,13.9686324 C26.036751,13.8573057 26.1933791,13.794763 26.3566962,13.794763 L28.6390209,13.794763 C28.9791111,13.794763 29.2548087,14.0605389 29.2548087,14.3883901 L29.2596959,16.5885794 Z M29.2596959,10.97739 C29.2596959,11.3052412 28.9839983,11.5710171 28.6439081,11.5710171 L26.3566962,11.5710171 C26.0166059,11.5710171 25.7409083,11.3052412 25.7409083,10.97739 L25.7409083,8.77720065 C25.7409083,8.44934946 26.0166059,8.18357355 26.3566962,8.18357355 L28.6390209,8.18357355 C28.9791111,8.18357355 29.2548087,8.44934946 29.2548087,8.77720065 L29.2596959,10.97739 Z M36.6540369,44.3241566 L30.4717227,44.3241566 L30.4717227,36.8378593 C30.4717227,36.5048041 30.7517965,36.2348096 31.0972849,36.2348096 L36.0431363,36.2348096 C36.3828858,36.242488 36.6541303,36.5102466 36.6540369,36.8378593 L36.6540369,44.3241566 Z M41.3848513,33.4268592 C41.3848513,33.7547103 41.1091537,34.0204863 40.7690635,34.0204863 L38.4965132,34.0204863 C38.3331961,34.0204863 38.1765681,33.9579436 38.0610854,33.8466169 C37.9456028,33.7352902 37.8807254,33.5842989 37.8807254,33.4268592 L37.8807254,31.2219585 C37.8794224,31.0637041 37.9437243,30.9114996 38.0593484,30.7991518 C38.1749725,30.6868041 38.3323458,30.6236151 38.4965132,30.6236201 L40.7837251,30.6236201 C40.9470422,30.6236201 41.1036702,30.6861628 41.2191528,30.7974894 C41.3346355,30.9088161 41.3995129,31.0598075 41.3995129,31.2172472 L41.3848513,33.4268592 Z M41.3848513,27.8156697 C41.3848513,28.1435209 41.1091537,28.4092968 40.7690635,28.4092968 L38.4965132,28.4092968 C38.3297519,28.4093778 38.1700869,28.3442549 38.0540255,28.2288184 C37.9379641,28.1133819 37.8754313,27.9575033 37.8807254,27.7968244 L37.8807254,25.610769 C37.8807254,25.4533294 37.9456028,25.302338 38.0610854,25.1910113 C38.1765681,25.0796846 38.3331961,25.0171419 38.4965132,25.0171419 L40.7837251,25.0171419 C41.1238153,25.0171419 41.3995129,25.2829179 41.3995129,25.610769 L41.3848513,27.8156697 Z M41.3848513,22.2044802 C41.3848513,22.5323314 41.1091537,22.7981073 40.7690635,22.7981073 L38.4965132,22.7981073 C38.3331961,22.7981073 38.1765681,22.7355646 38.0610854,22.624238 C37.9456028,22.5129113 37.8807254,22.3619199 37.8807254,22.2044802 L37.8807254,19.9995796 C37.8807254,19.6717284 38.156423,19.4059525 38.4965132,19.4059525 L40.7837251,19.4059525 C41.1238153,19.4059525 41.3995129,19.6717284 41.3995129,19.9995796 L41.3848513,22.2044802 Z M41.3848513,16.5932908 C41.3848513,16.921142 41.1091537,17.1869179 40.7690635,17.1869179 L38.4965132,17.1869179 C38.3331961,17.1869179 38.1765681,17.1243752 38.0610854,17.0130485 C37.9456028,16.9017218 37.8807254,16.7507305 37.8807254,16.5932908 L37.8807254,14.3883901 C37.8807254,14.2309504 37.9456028,14.079959 38.0610854,13.9686324 C38.1765681,13.8573057 38.3331961,13.794763 38.4965132,13.794763 L40.7837251,13.794763 C41.1238153,13.794763 41.3995129,14.0605389 41.3995129,14.3883901 L41.3848513,16.5932908 Z M41.3848513,10.9821013 C41.3848513,11.3099525 41.1091537,11.5757284 40.7690635,11.5757284 L38.4965132,11.5757284 C38.3331961,11.5757284 38.1765681,11.5131857 38.0610854,11.401859 C37.9456028,11.2905324 37.8807254,11.139541 37.8807254,10.9821013 L37.8807254,8.77720065 C37.8807254,8.44934946 38.156423,8.18357355 38.4965132,8.18357355 L40.7837251,8.18357355 C41.1238153,8.18357355 41.3995129,8.44934946 41.3995129,8.77720065 L41.3848513,10.9821013 Z" id="Shape"></path>
                            </g>
                        </g>
                    </g>
                </g>
            </g>
        </g>
    </g>
</svg>