<?xml version="1.0" encoding="UTF-8" standalone="no"?>
<svg width="56px" height="47px" viewBox="0 0 56 47" version="1.1" xmlns="http://www.w3.org/2000/svg" xmlns:xlink="http://www.w3.org/1999/xlink">
    <!-- Generator: Sketch 45.2 (43514) - http://www.bohemiancoding.com/sketch -->
    <title>Group</title>
    <desc>Created with Sketch.</desc>
    <defs></defs>
    <g id="Page-1" stroke="none" stroke-width="1" fill="none" fill-rule="evenodd">
        <g id="red-zone" transform="translate(-179.000000, -1104.000000)" fill-rule="nonzero" fill="#000000">
            <g id="bubble-thig" transform="translate(101.000000, 439.351562)">
                <g id="CTAs" transform="translate(0.000000, 442.118499)">
                    <g id="Group" transform="translate(47.000000, 42.000000)">
                        <g id="Group-2" transform="translate(0.457031, 163.548828)">
                            <g id="noun_1147920_cc" transform="translate(30.476562, 16.694987)">
                                <g id="Group">
                                    <path d="M53.8161458,8.98868815 C52.540332,7.88684896 50.916569,6.55304362 49.5827637,5.74116211 C43.7256185,2.26166992 35.9547526,0.405940755 27.8359375,0.405940755 C19.6591309,0.405940755 11.9462565,2.31966146 6.08911133,5.74116211 C4.75530599,6.49505208 3.13154297,7.88684896 1.85572917,8.98868815 C0.579915365,10.0905273 0.0579915365,11.7722819 0.405940755,13.3960449 L1.9137207,20.2970378 C2.31966146,22.0367839 4.11739909,23.0806315 5.79915365,22.5587077 L15.7157064,19.4271647 C17.1075033,18.9632324 17.9773763,17.6294271 17.8034017,16.1216471 L17.1075033,10.6704427 C20.7029785,9.62659505 23.6605469,9.04667969 27.777946,9.04667969 C32.1853027,9.04667969 35.1428711,9.68458659 38.6223633,10.7284342 L37.9264648,16.1216471 C37.7524902,17.5714355 38.6223633,18.9632324 40.0141602,19.4271647 L49.8727214,22.5587077 C51.6124674,23.138623 53.4102051,22.0367839 53.8161458,20.2390462 L55.2079427,13.2800618 C55.6138835,11.7142904 55.0339681,10.0905273 53.8161458,8.98868815 Z" id="Shape"></path>
                                    <path d="M22.9646484,30.7935059 C22.9646484,29.8076497 22.1527669,29.0537598 21.2249023,29.0537598 C20.2390462,29.0537598 19.4851562,29.8076497 19.4851562,30.7935059 C19.4851562,31.779362 20.2390462,32.533252 21.2249023,32.533252 C22.2107585,32.5912435 22.9646484,31.779362 22.9646484,30.7935059 Z" id="Shape"></path>
                                    <path d="M21.9208008,34.2150065 C21.2249023,34.9109049 21.2249023,36.0127441 21.9208008,36.7086426 C22.6166992,37.404541 23.7185384,37.404541 24.4144368,36.7086426 C25.1103353,36.0127441 25.1103353,34.9109049 24.4144368,34.2150065 C23.7185384,33.5770996 22.6166992,33.5770996 21.9208008,34.2150065 Z" id="Shape"></path>
                                    <path d="M21.9208008,24.9363607 C21.2249023,25.6322591 21.2249023,26.7340983 21.9208008,27.4299967 C22.6166992,28.1258952 23.7185384,28.1258952 24.4144368,27.4299967 C25.1103353,26.7340983 25.1103353,25.6322591 24.4144368,24.9363607 C23.7185384,24.2404622 22.6166992,24.2404622 21.9208008,24.9363607 Z" id="Shape"></path>
                                    <path d="M27.8359375,35.6647949 C26.8500814,35.6647949 26.0961914,36.4186849 26.0961914,37.404541 C26.0961914,38.3903971 26.8500814,39.1442871 27.8359375,39.1442871 C28.8217936,39.1442871 29.5756836,38.3324056 29.5756836,37.404541 C29.5756836,36.4186849 28.8217936,35.6647949 27.8359375,35.6647949 Z" id="Shape"></path>
                                    <path d="M27.8359375,22.4427246 C26.8500814,22.4427246 26.0961914,23.1966146 26.0961914,24.1824707 C26.0961914,25.1683268 26.8500814,25.9222168 27.8359375,25.9222168 C28.8217936,25.9222168 29.5756836,25.1103353 29.5756836,24.1824707 C29.5756836,23.2546061 28.8217936,22.4427246 27.8359375,22.4427246 Z" id="Shape"></path>
                                    <path d="M31.2574382,34.2150065 C30.5615397,34.9109049 30.5615397,36.0127441 31.2574382,36.7086426 C31.9533366,37.404541 33.0551758,37.404541 33.7510742,36.7086426 C34.4469727,36.0127441 34.4469727,34.9109049 33.7510742,34.2150065 C33.0551758,33.5770996 31.9533366,33.5770996 31.2574382,34.2150065 Z" id="Shape"></path>
                                    <path d="M33.7510742,27.3720052 C34.4469727,26.6761068 34.4469727,25.5742676 33.7510742,24.8783691 C33.0551758,24.1824707 31.9533366,24.1824707 31.2574382,24.8783691 C30.5615397,25.5742676 30.5615397,26.6761068 31.2574382,27.3720052 C31.9533366,28.0679036 33.0551758,28.0679036 33.7510742,27.3720052 Z" id="Shape"></path>
                                    <path d="M32.7072266,30.7935059 C32.7072266,31.779362 33.4611165,32.533252 34.4469727,32.533252 C35.4328288,32.533252 36.1867187,31.7213704 36.1867187,30.7935059 C36.1867187,29.8076497 35.3748372,29.0537598 34.4469727,29.0537598 C33.4611165,29.0537598 32.7072266,29.8656413 32.7072266,30.7935059 Z" id="Shape"></path>
                                    <path d="M48.9448568,24.5304199 L39.4342448,21.51486 C37.0565918,20.7609701 35.5488118,18.3833171 35.8387695,15.9476725 L36.3027018,12.3521973 C33.6930827,11.6562988 31.2574382,11.2503581 27.8359375,11.2503581 C24.5304199,11.2503581 22.0947754,11.6562988 19.4851562,12.2942057 L19.9490885,15.9476725 C20.2390462,18.4413086 18.7312663,20.7609701 16.3536133,21.5728516 L6.66902669,24.646403 L3.07355143,36.1287272 C1.68175456,40.5940755 4.98727214,45.1174154 9.68458659,45.1174154 L10.380485,45.1174154 L10.380485,46.5092122 C10.380485,46.8571615 10.6704427,47.2051107 11.0763835,47.2051107 L15.135791,47.2051107 C15.4837402,47.2051107 15.8316895,46.915153 15.8316895,46.5092122 L15.8316895,45.1174154 L39.9561686,45.1174154 L39.9561686,46.5092122 C39.9561686,46.8571615 40.2461263,47.2051107 40.6520671,47.2051107 L44.7114746,47.2051107 C45.0594238,47.2051107 45.407373,46.915153 45.407373,46.5092122 L45.407373,45.1174154 L46.1032715,45.1174154 C50.8005859,45.1174154 54.1061035,40.5940755 52.7143066,36.1287272 L48.9448568,24.5304199 Z M27.8359375,40.8840332 C22.26875,40.8840332 17.8034017,36.3606934 17.8034017,30.8514974 C17.8034017,25.2843099 22.3267415,20.8189616 27.8359375,20.8189616 C33.403125,20.8189616 37.8684733,25.3423014 37.8684733,30.8514974 C37.8684733,36.3606934 33.403125,40.8840332 27.8359375,40.8840332 Z" id="Shape"></path>
                                </g>
                            </g>
                        </g>
                    </g>
                </g>
            </g>
        </g>
    </g>
</svg>