<?xml version="1.0" encoding="UTF-8" standalone="no"?>
<svg width="52px" height="84px" viewBox="0 0 52 84" version="1.1" xmlns="http://www.w3.org/2000/svg" xmlns:xlink="http://www.w3.org/1999/xlink">
    <!-- Generator: Sketch 45.2 (43514) - http://www.bohemiancoding.com/sketch -->
    <title>Shape</title>
    <desc>Created with Sketch.</desc>
    <defs></defs>
    <g id="Page-1" stroke="none" stroke-width="1" fill="none" fill-rule="evenodd">
        <g id="Desktop" transform="translate(-600.000000, -339.000000)" fill-rule="nonzero" fill="#EE6D3E">
            <g id="noun_1055258_cc" transform="translate(600.000000, 338.035156)">
                <g id="Group" transform="translate(0.000000, 0.637820)">
                    <path d="M26.000001,0.36215 C11.640579,0.36215 -1e-06,12.45045 -1e-06,27.36215 C-1e-06,32.73645 3.498439,40.9596 5.781249,45.3622 L26.000001,84.3622 L46.218751,45.3622 C48.501521,40.9596 52.000001,32.73645 52.000001,27.36215 C52.000001,12.45045 40.359401,0.36215 26.000001,0.36215 Z M26.000001,14.36215 C32.627421,14.36215 38.000001,19.73475 38.000001,26.36215 C38.000001,32.98945 32.627421,38.36215 26.000001,38.36215 C19.372581,38.36215 13.999999,32.98945 13.999999,26.36215 C13.999999,19.73475 19.372582,14.36215 26.000001,14.36215 Z" id="Shape"></path>
                </g>
            </g>
        </g>
    </g>
</svg>